<?xml version="1.0" encoding="UTF-8" standalone="no"?><!DOCTYPE svg PUBLIC "-//W3C//DTD SVG 1.1//EN" "http://www.w3.org/Graphics/SVG/1.1/DTD/svg11.dtd"><svg width="269px" height="252px" version="1.1" xmlns="http://www.w3.org/2000/svg" xmlns:xlink="http://www.w3.org/1999/xlink" xml:space="preserve" xmlns:serif="http://www.serif.com/" style="fill-rule:evenodd;clip-rule:evenodd;stroke-linecap:round;stroke-linejoin:round;stroke-miterlimit:10;"><g transform="matrix(1,0,0,1,-351.79,-6.21725e-15)"><g id="Artboard9" transform="matrix(0.709763,0,0,0.643789,-207.503,-1.65297)"><rect x="788" y="2.568" width="379" height="391.432" style="fill:none;"/><g transform="matrix(1.40892,0,0,1.5533,-398.312,-201.582)"><g transform="matrix(1.00596,0,0,0.949162,-1527.76,-424.486)"><g transform="matrix(-0.986662,-0.128439,-0.121188,1.0457,4716.67,-41.7662)"><ellipse cx="2143.48" cy="935.494" rx="46.877" ry="43.476" style="fill:rgb(76,73,97);stroke:black;stroke-width:3px;"/></g><g transform="matrix(0.4154,-0.957165,-0.903123,-0.440257,2446.94,3066.55)"><path d="M2115.6,953.965C2115.6,953.965 2116.04,967.774 2115.64,973.488C2115.28,978.421 2118.39,985.979 2115.6,986.348C2112.44,986.765 2100.21,983.606 2095.72,978.054C2091.6,972.941 2079.67,961.448 2079.67,961.448" style="fill:rgb(76,73,97);"/></g><g transform="matrix(0.994077,0,0,1.05356,357.629,-387.559)"><path d="M2090.87,945.281C2090.11,946.663 2089.32,950.048 2088.99,953.811C2088.64,957.773 2088.8,962.173 2090.28,965.158C2093.23,971.093 2098.73,986.852 2098.73,986.852C2099.01,987.634 2098.59,988.49 2097.81,988.762C2097.03,989.035 2096.17,988.622 2095.9,987.841C2095.9,987.841 2090.49,972.331 2087.59,966.492C2085.9,963.083 2085.6,958.071 2086,953.546C2086.4,948.992 2087.53,944.95 2088.44,943.503C2089.26,942.199 2090.7,941.878 2092.62,942.702C2095.05,943.746 2098.72,947.029 2101.93,948.237C2107.35,950.273 2119.8,956.495 2119.8,956.495C2120.54,956.865 2120.84,957.767 2120.47,958.507C2120.1,959.248 2119.19,959.548 2118.45,959.178C2118.45,959.178 2106.2,953.048 2100.88,951.045C2098.03,949.976 2094.83,947.363 2092.39,945.953C2091.99,945.721 2091.62,945.527 2091.28,945.394C2091.15,945.346 2090.99,945.306 2090.87,945.281Z"/></g><g transform="matrix(0.384806,0.971424,0.916577,-0.407832,802.984,-1098.78)"><path d="M2172.14,953.365C2171.53,953.035 2168.79,977.461 2168.79,977.461C2168.79,977.461 2168.79,987.263 2172.14,987.604C2175.49,987.945 2184.34,981.03 2191.28,976.271C2197.68,971.893 2206.87,962.048 2206.87,962.048" style="fill:rgb(76,73,97);"/></g><g transform="matrix(0.994077,0,0,1.05356,357.629,-386.626)"><path d="M2169.13,958.623C2169.1,958.664 2169.07,958.704 2169.04,958.744C2168.52,959.387 2167.57,959.485 2166.93,958.964L2166.63,958.64L2166.43,958.219L2166.37,957.733L2166.46,957.239L2166.83,956.651C2166.95,956.53 2167.15,956.351 2167.45,956.135C2170.56,953.86 2188.07,944.072 2188.07,944.072C2188.12,944.044 2188.17,944.02 2188.22,943.998C2188.22,943.998 2192.96,942.032 2196.4,941.924C2198.44,941.859 2200.05,942.511 2200.77,943.827C2201.35,944.883 2201.54,946.774 2201.32,949.183C2200.9,953.947 2199.08,961.057 2197.88,966.885C2196.29,974.595 2190.7,987.076 2190.7,987.076C2190.36,987.831 2189.47,988.169 2188.71,987.83C2187.96,987.49 2187.62,986.602 2187.96,985.847C2187.96,985.847 2193.4,973.754 2194.94,966.279C2196.12,960.562 2197.92,953.589 2198.33,948.915C2198.48,947.279 2198.53,945.98 2198.14,945.263C2198.02,945.051 2197.75,945.024 2197.47,944.976C2196.83,944.864 2196.05,944.922 2195.24,945.046C2192.71,945.434 2189.95,946.534 2189.46,946.734C2188.2,947.433 2172.16,956.404 2169.22,958.556C2169.19,958.577 2169.16,958.6 2169.13,958.623ZM2169.32,957.383C2169.24,957.087 2169.07,956.838 2168.82,956.634C2169.07,956.834 2169.23,957.098 2169.32,957.383Z"/></g><g transform="matrix(0.994077,0,0,1.05356,357.629,-385.343)"><path d="M2178.56,965.33C2185.6,963.57 2191.83,957.023 2197.41,947.013C2197.19,948.377 2195.37,960.242 2193.91,964.819C2191.67,971.798 2187.6,981.797 2187.6,981.797C2185.9,974.84 2183.3,968.839 2179.16,965.554L2178.56,965.33Z" style="fill:rgb(57,53,81);"/></g><g transform="matrix(0.994077,0,0,1.05356,357.629,-389.444)"><path d="M2107.97,967.615C2107.67,967.572 2103.12,966.652 2097.6,961.444C2094.71,958.712 2093.23,955.248 2091.03,949.725C2090.07,956.081 2090.6,959.427 2091.14,964.283C2091.33,965.978 2096.74,975.016 2098.49,982.978C2099.9,976.974 2103.09,972.366 2107.97,967.615Z" style="fill:rgb(57,53,81);"/></g><g transform="matrix(-0.986658,-0.128476,-0.121222,1.0457,4671.36,-65.0104)"><ellipse cx="2120" cy="945.169" rx="14.72" ry="14.721" style="fill:rgb(242,207,157);stroke:black;stroke-width:3px;"/></g><g transform="matrix(-0.994077,0,0,1.05356,4572.52,-344.81)"><path d="M2120,933.204C2118.29,941.297 2113.93,944.63 2108.41,945.169C2114.99,946.349 2118.92,950.27 2120,957.134C2120.52,950.079 2124.59,946.344 2131.59,945.169C2125.46,943.522 2121.07,940.072 2120,933.204Z"/></g><g transform="matrix(-0.986658,-0.128476,-0.121222,1.0457,4767.92,-58.7472)"><ellipse cx="2168.75" cy="945.169" rx="14.72" ry="14.721" style="fill:rgb(242,207,157);stroke:black;stroke-width:3px;"/></g><g transform="matrix(-0.994077,0,0,1.05356,4669.44,-344.81)"><path d="M2168.75,933.204C2167.04,941.297 2162.68,944.63 2157.16,945.169C2163.74,946.349 2167.67,950.27 2168.75,957.134C2169.27,950.079 2173.34,946.344 2180.34,945.169C2174.21,943.522 2169.82,940.072 2168.75,933.204Z"/></g><g transform="matrix(0.994077,0,0,1.05356,357.629,-305.539)"><path d="M2135.07,923.93C2136.3,922.243 2150.45,920.627 2152.05,921.991C2153.65,923.354 2147.52,931.79 2144.69,932.113C2141.86,932.436 2133.84,925.617 2135.07,923.93Z" style="fill:rgb(209,130,147);"/></g><g transform="matrix(0.994077,0,0,1.05356,357.629,-304.998)"><path d="M2133.86,922.535C2134.15,922.136 2134.84,921.637 2135.91,921.258C2137.57,920.671 2140.4,920.139 2143.25,919.813C2146.1,919.487 2148.98,919.368 2150.73,919.564C2151.86,919.69 2152.65,920.015 2153.02,920.335L2153.34,920.678L2153.58,921.063L2153.79,921.829C2153.88,922.551 2153.64,923.638 2153.05,924.856C2151.97,927.103 2149.74,930.002 2147.76,931.623C2146.7,932.492 2145.66,932.999 2144.86,933.09C2144.06,933.182 2142.93,932.924 2141.7,932.32C2139.38,931.191 2136.51,928.88 2134.92,926.944C2134.05,925.897 2133.56,924.896 2133.47,924.178L2133.49,923.381L2133.62,922.948L2133.86,922.535ZM2136.65,924.21C2136.7,924.309 2136.76,924.41 2136.82,924.496C2137.6,925.629 2139.08,927.009 2140.62,928.136C2141.63,928.876 2142.66,929.508 2143.55,929.864C2143.93,930.017 2144.26,930.14 2144.52,930.11C2145.09,930.044 2145.79,929.419 2146.56,928.674C2148.04,927.248 2149.56,925.197 2150.35,923.553C2150.5,923.254 2150.62,922.887 2150.7,922.609C2150.41,922.561 2150.04,922.509 2149.71,922.492C2148.09,922.409 2145.83,922.537 2143.59,922.794C2141.35,923.05 2139.12,923.434 2137.57,923.878C2137.26,923.968 2136.91,924.099 2136.65,924.21Z"/></g><g transform="matrix(0.994077,0,0,1.05356,357.629,-288.74)"><path d="M2143.6,917C2143.15,916.352 2143.28,915.459 2143.91,914.968C2144.56,914.458 2145.51,914.574 2146.02,915.226C2146.36,915.663 2146.62,916.463 2146.7,917.422C2146.82,918.943 2146.58,920.956 2146.54,921.253C2146.44,922.074 2145.69,922.66 2144.87,922.559C2144.05,922.458 2143.47,921.709 2143.57,920.887C2143.59,920.669 2143.75,919.373 2143.73,918.188C2143.73,917.757 2143.62,917.098 2143.6,917Z"/></g><g transform="matrix(-0.994067,-0.00474359,-0.00447576,1.05355,4626.3,-262.267)"><ellipse cx="2145.01" cy="910.829" rx="9.026" ry="4.444" style="fill:rgb(143,93,132);stroke:black;stroke-width:3px;"/></g></g><g transform="matrix(-1,0,0,1,2966.26,-751.767)"><path d="M2067.13,936.373C2066.38,942.322 2064.47,944.773 2062.05,945.169C2064.94,946.036 2066.66,948.919 2067.13,953.965C2067.36,948.778 2069.14,946.032 2072.21,945.169C2069.52,943.958 2067.6,941.422 2067.13,936.373Z" style="fill:rgb(196,164,77);"/></g><g transform="matrix(-1,0,0,1,3156.48,-851.972)"><path d="M2162.24,986.473C2161.49,992.427 2159.58,994.878 2157.16,995.273C2160.05,996.141 2161.77,999.024 2162.24,1004.07C2162.47,998.883 2164.25,996.137 2167.32,995.273C2164.63,994.062 2162.71,991.526 2162.24,986.473Z" style="fill:rgb(196,164,77);"/></g><g transform="matrix(-1,0,0,1,3258.76,-707.003)"><path d="M2213.38,913.991C2212.63,919.941 2210.72,922.391 2208.3,922.787C2211.19,923.655 2212.91,926.538 2213.38,931.583C2213.61,926.397 2215.39,923.651 2218.46,922.787C2215.77,921.576 2213.85,919.04 2213.38,913.991Z" style="fill:rgb(196,164,77);"/></g><g transform="matrix(1,0,0,1,-1168,-500.693)"><path d="M2181.52,782.201L2181.52,857.063C2181.52,867.518 2173.03,876.007 2162.57,876.007L2124.68,876.007C2114.23,876.007 2105.74,867.518 2105.74,857.063L2105.74,782.201C2105.74,771.746 2114.23,763.257 2124.68,763.257L2162.57,763.257C2173.03,763.257 2181.52,771.746 2181.52,782.201Z" style="fill:rgb(180,181,130);stroke:rgb(242,207,157);stroke-width:3px;"/></g><g transform="matrix(1,0,0,1,-1168,-500.693)"><path d="M2143.63,798.263L2147.47,810.075L2154.86,806.425L2153.68,814.587L2166.1,814.587L2156.05,821.888L2161.81,827.794L2153.68,829.189L2157.52,841.001L2147.47,833.7L2143.63,841.001L2139.79,833.7L2129.74,841.001L2133.58,829.189L2125.45,827.794L2131.21,821.888L2121.16,814.587L2133.58,814.587L2132.39,806.425L2139.79,810.075L2143.63,798.263Z" style="fill:rgb(230,164,126);stroke:rgb(242,207,157);stroke-width:3px;"/></g><g transform="matrix(1,0,0,1,-1168,-565.939)"><path d="M2090.77,814.824L2090.77,889.686C2090.77,900.141 2082.28,908.63 2071.82,908.63L2033.93,908.63C2023.48,908.63 2014.99,900.141 2014.99,889.686L2014.99,814.824C2014.99,804.368 2023.48,795.88 2033.93,795.88L2071.82,795.88C2082.28,795.88 2090.77,804.368 2090.77,814.824Z" style="fill:rgb(180,181,130);stroke:rgb(242,207,157);stroke-width:3px;"/></g><g transform="matrix(1,0,0,1,-1168,-565.939)"><path d="M2052.88,830.886L2056.72,842.698L2064.11,839.048L2062.93,847.21L2075.35,847.21L2065.3,854.511L2071.06,860.417L2062.93,861.811L2066.77,873.624L2056.72,866.323L2052.88,873.624L2049.04,866.323L2038.99,873.624L2042.83,861.811L2034.7,860.417L2040.46,854.511L2030.41,847.21L2042.83,847.21L2041.64,839.048L2049.04,842.698L2052.88,830.886Z" style="fill:rgb(230,164,126);stroke:rgb(242,207,157);stroke-width:3px;"/></g></g></g></g></svg>