<?xml version="1.0" encoding="UTF-8" standalone="no"?><!DOCTYPE svg PUBLIC "-//W3C//DTD SVG 1.1//EN" "http://www.w3.org/Graphics/SVG/1.1/DTD/svg11.dtd"><svg width="269px" height="258px" version="1.1" xmlns="http://www.w3.org/2000/svg" xmlns:xlink="http://www.w3.org/1999/xlink" xml:space="preserve" xmlns:serif="http://www.serif.com/" style="fill-rule:evenodd;clip-rule:evenodd;stroke-linecap:round;stroke-linejoin:round;stroke-miterlimit:10;"><g transform="matrix(1,0,0,1,-177.78,-0.11544)"><g id="Artboard8" transform="matrix(0.646635,0,0,0.693548,-216.02,0.11544)"><rect x="609" y="0" width="416" height="372" style="fill:none;"/><g id="Hero-Illustration" serif:id="Hero Illustration" transform="matrix(1.54647,0,0,1.44186,-1272.35,-922.28)"><g><g transform="matrix(-0.992555,-0.121796,-0.121796,0.992555,3133.2,-4.58839)"><ellipse cx="1681.36" cy="935.671" rx="46.877" ry="43.477" style="fill:rgb(76,73,97);stroke:black;stroke-width:3px;"/></g><g transform="matrix(0.417875,-0.908505,-0.908505,-0.417875,1501.94,2582.65)"><path d="M1653.47,954.141C1653.47,954.141 1653.92,967.941 1653.51,973.663C1653.16,978.587 1656.26,986.155 1653.47,986.524C1650.31,986.941 1638.08,983.782 1633.59,978.23C1629.47,973.117 1617.54,961.624 1617.54,961.624" style="fill:rgb(76,73,97);"/></g><g transform="matrix(1,0,0,1,-330.956,-276.261)"><path d="M1628.75,945.457C1627.99,946.839 1627.2,950.224 1626.86,953.987C1626.51,957.949 1626.67,962.349 1628.16,965.334C1631.1,971.269 1636.61,987.028 1636.61,987.028C1636.88,987.81 1636.47,988.666 1635.68,988.939C1634.9,989.211 1634.05,988.798 1633.77,988.017C1633.77,988.017 1628.37,972.507 1625.47,966.668C1623.78,963.259 1623.47,958.247 1623.87,953.722C1624.28,949.168 1625.4,945.126 1626.31,943.679C1627.14,942.375 1628.57,942.054 1630.49,942.878C1632.92,943.922 1636.59,947.205 1639.81,948.414C1645.22,950.449 1657.67,956.671 1657.67,956.671C1658.41,957.041 1658.71,957.943 1658.34,958.683C1657.97,959.424 1657.07,959.724 1656.33,959.354C1656.33,959.354 1644.08,953.225 1638.75,951.222C1635.91,950.152 1632.7,947.539 1630.27,946.129C1629.86,945.897 1629.49,945.703 1629.15,945.57C1629.03,945.523 1628.86,945.482 1628.75,945.457Z"/></g><g transform="matrix(0.386994,0.922082,0.922082,-0.386994,-166.21,-525.164)"><path d="M1710.02,953.535C1709.41,953.205 1706.66,977.64 1706.66,977.64C1706.66,977.64 1706.67,987.442 1710.02,987.783C1713.36,988.125 1722.21,981.202 1729.16,976.452C1735.55,972.066 1744.75,962.221 1744.75,962.221" style="fill:rgb(76,73,97);"/></g><g transform="matrix(1,0,0,1,-330.956,-275.376)"><path d="M1707,958.799C1706.97,958.84 1706.95,958.881 1706.91,958.92C1706.39,959.563 1705.45,959.661 1704.8,959.14L1704.51,958.816L1704.3,958.395L1704.24,957.909L1704.34,957.415L1704.71,956.827C1704.82,956.706 1705.02,956.527 1705.32,956.311C1708.43,954.036 1725.94,944.248 1725.94,944.248C1725.99,944.22 1726.04,944.196 1726.1,944.174C1726.1,944.174 1730.84,942.208 1734.27,942.1C1736.31,942.035 1737.93,942.687 1738.64,944.003C1739.22,945.059 1739.41,946.95 1739.2,949.359C1738.77,954.123 1736.96,961.234 1735.76,967.061C1734.17,974.771 1728.57,987.252 1728.57,987.252C1728.23,988.007 1727.34,988.345 1726.59,988.006C1725.83,987.666 1725.5,986.778 1725.83,986.023C1725.83,986.023 1731.28,973.93 1732.82,966.456C1733.99,960.738 1735.79,953.765 1736.21,949.091C1736.35,947.455 1736.4,946.156 1736.01,945.439C1735.9,945.227 1735.63,945.201 1735.35,945.152C1734.7,945.04 1733.92,945.098 1733.11,945.222C1730.58,945.61 1727.82,946.71 1727.33,946.91C1726.08,947.61 1710.03,956.58 1707.09,958.732C1707.06,958.753 1707.03,958.776 1707,958.799ZM1707.19,957.559C1707.11,957.263 1706.95,957.014 1706.69,956.81C1706.94,957.01 1707.11,957.274 1707.19,957.559Z"/></g><g transform="matrix(1,0,0,1,-330.956,-274.159)"><path d="M1716.43,965.506C1723.47,963.747 1729.7,957.199 1735.29,947.189C1735.07,948.553 1733.25,960.418 1731.78,964.995C1729.55,971.974 1725.48,981.973 1725.48,981.973C1723.77,975.016 1721.18,969.015 1717.03,965.73L1716.43,965.506Z" style="fill:rgb(57,53,81);"/></g><g transform="matrix(1,0,0,1,-330.956,-278.051)"><path d="M1645.84,967.791C1645.54,967.748 1640.99,966.828 1635.48,961.62C1632.58,958.889 1631.1,955.425 1628.9,949.901C1627.94,956.257 1628.47,959.603 1629.01,964.459C1629.2,966.154 1634.61,975.192 1636.37,983.154C1637.77,977.151 1640.97,972.542 1645.84,967.791Z" style="fill:rgb(57,53,81);"/></g><g transform="matrix(-0.992537,-0.121944,-0.121944,0.992537,3087.5,-26.5557)"><ellipse cx="1657.77" cy="945.385" rx="14.72" ry="14.721" style="fill:rgb(242,207,157);stroke:black;stroke-width:3px;"/></g><g transform="matrix(-1,0,0,1,2984.57,-235.767)"><path d="M1657.76,936.42C1656.48,942.484 1653.22,944.981 1649.08,945.385C1654.01,946.269 1656.95,949.207 1657.76,954.35C1658.16,949.064 1661.2,946.265 1666.45,945.385C1661.85,944.151 1658.57,941.566 1657.76,936.42Z"/></g><g transform="matrix(-0.992537,-0.121944,-0.121944,0.992537,3184.63,-20.6109)"><ellipse cx="1706.52" cy="945.385" rx="14.72" ry="14.721" style="fill:rgb(242,207,157);stroke:black;stroke-width:3px;"/></g><g transform="matrix(-1,0,0,1,3082.07,-235.767)"><path d="M1706.51,936.42C1705.23,942.484 1701.97,944.981 1697.83,945.385C1702.76,946.269 1705.7,949.207 1706.51,954.35C1706.91,949.064 1709.95,946.265 1715.2,945.385C1710.6,944.151 1707.32,941.566 1706.51,936.42Z"/></g><g transform="matrix(1,0,0,1,-330.956,-198.491)"><path d="M1672.84,924.146C1674.06,922.459 1688.21,920.843 1689.82,922.207C1691.42,923.57 1685.29,932.006 1682.46,932.329C1679.63,932.652 1671.61,925.833 1672.84,924.146Z" style="fill:rgb(209,130,147);"/></g><g transform="matrix(1,0,0,1,-330.956,-197.978)"><path d="M1671.63,922.751C1671.92,922.352 1672.6,921.853 1673.68,921.474C1675.34,920.887 1678.16,920.355 1681.02,920.029C1683.87,919.703 1686.74,919.584 1688.5,919.78C1689.63,919.906 1690.41,920.231 1690.79,920.551L1691.11,920.894L1691.34,921.279L1691.56,922.045C1691.65,922.767 1691.41,923.854 1690.82,925.072C1689.74,927.319 1687.5,930.218 1685.53,931.839C1684.47,932.708 1683.43,933.215 1682.63,933.306C1681.83,933.398 1680.7,933.14 1679.46,932.536C1677.15,931.407 1674.28,929.096 1672.68,927.16C1671.82,926.113 1671.32,925.112 1671.23,924.394L1671.26,923.597L1671.39,923.164L1671.63,922.751ZM1674.41,924.426C1674.47,924.525 1674.53,924.626 1674.59,924.712C1675.37,925.845 1676.85,927.225 1678.38,928.352C1679.39,929.092 1680.43,929.724 1681.32,930.08C1681.7,930.233 1682.03,930.356 1682.29,930.326C1682.86,930.26 1683.55,929.635 1684.33,928.89C1685.81,927.464 1687.32,925.413 1688.12,923.769C1688.26,923.47 1688.38,923.103 1688.47,922.825C1688.18,922.777 1687.81,922.724 1687.48,922.708C1685.86,922.624 1683.6,922.753 1681.36,923.009C1679.11,923.266 1676.88,923.65 1675.33,924.094C1675.02,924.184 1674.68,924.315 1674.41,924.426Z"/></g><g transform="matrix(1,0,0,1,-330.956,-182.547)"><path d="M1681.37,917.216C1680.92,916.568 1681.05,915.674 1681.68,915.183C1682.33,914.674 1683.27,914.79 1683.78,915.442C1684.13,915.879 1684.39,916.679 1684.47,917.638C1684.59,919.159 1684.35,921.172 1684.31,921.469C1684.21,922.29 1683.46,922.876 1682.64,922.775C1681.82,922.674 1681.23,921.925 1681.33,921.103C1681.36,920.885 1681.52,919.589 1681.5,918.404C1681.49,917.973 1681.38,917.314 1681.37,917.216Z"/></g><g transform="matrix(-0.99999,-0.00451327,-0.00451327,0.99999,3038.71,-161.732)"><ellipse cx="1682.79" cy="912.17" rx="7.504" ry="3.325" style="fill:rgb(143,93,132);stroke:black;stroke-width:3px;"/></g></g><g transform="matrix(-1,0,0,1,2974.42,-352.985)"><path d="M1652.69,995.198C1651.94,1001.15 1650.03,1003.6 1647.61,1004C1650.5,1004.86 1652.22,1007.75 1652.69,1012.79C1652.92,1007.61 1654.7,1004.86 1657.77,1004C1655.08,1002.78 1653.16,1000.25 1652.69,995.198Z" style="fill:rgb(196,164,77);"/></g><g transform="matrix(-1,0,0,1,2916.76,-159.933)"><path d="M1623.86,898.672C1623.11,904.621 1621.2,907.072 1618.78,907.468C1621.66,908.335 1623.39,911.218 1623.86,916.264C1624.09,911.078 1625.87,908.332 1628.94,907.468C1626.25,906.257 1624.33,903.721 1623.86,898.672Z" style="fill:rgb(196,164,77);"/></g><g transform="matrix(-1,0,0,1,3177.32,-259.863)"><path d="M1754.14,948.637C1753.39,954.587 1751.48,957.038 1749.06,957.433C1751.95,958.301 1753.67,961.184 1754.14,966.23C1754.37,961.043 1756.15,958.297 1759.22,957.433C1756.53,956.222 1754.61,953.686 1754.14,948.637Z" style="fill:rgb(196,164,77);"/></g><g transform="matrix(1,0,0,1,-330.956,15.3075)"><path d="M1719.28,782.417L1719.28,857.279C1719.28,867.734 1710.8,876.223 1700.34,876.223L1662.45,876.223C1652,876.223 1643.51,867.734 1643.51,857.279L1643.51,782.417C1643.51,771.961 1652,763.473 1662.45,763.473L1700.34,763.473C1710.8,763.473 1719.28,771.961 1719.28,782.417Z" style="fill:rgb(180,181,130);stroke:rgb(242,207,157);stroke-width:3px;"/></g><g transform="matrix(1,0,0,1,-330.956,15.3075)"><path d="M1681.4,798.479L1685.23,810.291L1692.63,806.641L1691.44,814.803L1703.86,814.803L1693.82,822.104L1699.57,828.01L1691.44,829.404L1695.28,841.217L1685.23,833.916L1681.4,841.217L1677.56,833.916L1667.51,841.217L1671.35,829.404L1663.22,828.01L1668.98,822.104L1658.93,814.803L1671.35,814.803L1670.16,806.641L1677.56,810.291L1681.4,798.479Z" style="fill:rgb(230,164,126);stroke:rgb(242,207,157);stroke-width:3px;"/></g></g></g></g></svg>