<?xml version="1.0" encoding="UTF-8" standalone="no"?><!DOCTYPE svg PUBLIC "-//W3C//DTD SVG 1.1//EN" "http://www.w3.org/Graphics/SVG/1.1/DTD/svg11.dtd"><svg width="100%" height="100%" viewBox="0 0 148 258" version="1.1" xmlns="http://www.w3.org/2000/svg" xmlns:xlink="http://www.w3.org/1999/xlink" xml:space="preserve" xmlns:serif="http://www.serif.com/" style="fill-rule:evenodd;clip-rule:evenodd;stroke-linecap:round;stroke-linejoin:round;stroke-miterlimit:10;"><rect id="Artboard8" x="-0" y="0" width="148" height="258" style="fill:none;"/><g id="Hero-Illustration" serif:id="Hero Illustration"><g><path d="M73.65,36.535c-25.679,-3.151 -48.9,13.627 -51.823,37.443c-2.922,23.817 15.553,45.711 41.233,48.863c25.679,3.151 48.9,-13.627 51.823,-37.444c2.922,-23.817 -15.553,-45.711 -41.233,-48.862Z" style="fill:#4c4961;stroke:#000;stroke-width:3px;"/><path d="M44,42.105c-0,-0 -12.35,-6.175 -17.72,-8.194c-4.62,-1.738 -10.2,-7.716 -11.7,-5.338c-1.7,2.697 -3.94,15.127 -0.77,21.521c2.92,5.887 8.38,21.521 8.38,21.521" style="fill:#4c4961;"/><path d="M15.75,29.55c-0.76,1.382 -1.55,4.767 -1.89,8.53c-0.35,3.962 -0.19,8.362 1.3,11.347c2.94,5.935 8.45,21.694 8.45,21.694c0.27,0.782 -0.14,1.638 -0.93,1.911c-0.78,0.272 -1.63,-0.141 -1.91,-0.922c-0,-0 -5.4,-15.51 -8.3,-21.349c-1.69,-3.409 -2,-8.421 -1.6,-12.946c0.41,-4.554 1.53,-8.596 2.44,-10.043c0.83,-1.304 2.26,-1.625 4.18,-0.801c2.43,1.044 6.1,4.327 9.32,5.536c5.41,2.035 17.86,8.257 17.86,8.257c0.74,0.37 1.04,1.272 0.67,2.012c-0.37,0.741 -1.27,1.041 -2.01,0.671c-0,-0 -12.25,-6.129 -17.58,-8.132c-2.84,-1.07 -6.05,-3.683 -8.48,-5.093c-0.41,-0.232 -0.78,-0.426 -1.12,-0.559c-0.12,-0.047 -0.29,-0.088 -0.4,-0.113Z"/><path d="M92.75,42.953c-0.54,-0.434 20.93,-12.418 20.93,-12.418c0,-0 9.04,-3.79 10.65,-0.836c1.61,2.954 -1.35,13.791 -3.04,22.037c-1.57,7.593 -7.09,19.879 -7.09,19.879" style="fill:#4c4961;"/><path d="M94,43.777c-0.03,0.041 -0.05,0.082 -0.09,0.121c-0.52,0.643 -1.46,0.741 -2.11,0.22l-0.29,-0.324l-0.21,-0.421l-0.06,-0.486l0.1,-0.494l0.37,-0.588c0.11,-0.121 0.31,-0.3 0.61,-0.516c3.11,-2.275 20.62,-12.063 20.62,-12.063c0.05,-0.028 0.1,-0.052 0.16,-0.074c-0,-0 4.74,-1.966 8.17,-2.074c2.04,-0.065 3.66,0.587 4.37,1.903c0.58,1.056 0.77,2.947 0.56,5.356c-0.43,4.764 -2.24,11.875 -3.44,17.702c-1.59,7.71 -7.19,20.191 -7.19,20.191c-0.34,0.755 -1.23,1.093 -1.98,0.754c-0.76,-0.34 -1.09,-1.228 -0.76,-1.983c-0,-0 5.45,-12.093 6.99,-19.567c1.17,-5.718 2.97,-12.691 3.39,-17.365c0.14,-1.636 0.19,-2.935 -0.2,-3.652c-0.11,-0.212 -0.38,-0.238 -0.66,-0.287c-0.65,-0.112 -1.43,-0.054 -2.24,0.07c-2.53,0.388 -5.29,1.488 -5.78,1.688c-1.25,0.7 -17.3,9.67 -20.24,11.822c-0.03,0.021 -0.06,0.044 -0.09,0.067Zm0.19,-1.24c-0.08,-0.296 -0.24,-0.545 -0.5,-0.749c0.25,0.2 0.42,0.464 0.5,0.749Z"/><path d="M103.43,51.702c7.04,-1.759 13.27,-8.307 18.86,-18.317c-0.22,1.364 -2.04,13.229 -3.51,17.806c-2.23,6.979 -6.3,16.978 -6.3,16.978c-1.71,-6.957 -4.3,-12.958 -8.45,-16.243l-0.6,-0.224Z" style="fill:#393551;"/><path d="M32.84,50.094c-0.3,-0.043 -4.85,-0.963 -10.36,-6.171c-2.9,-2.731 -4.38,-6.195 -6.58,-11.719c-0.96,6.356 -0.43,9.702 0.11,14.558c0.19,1.695 5.6,10.733 7.36,18.695c1.4,-6.003 4.6,-10.612 9.47,-15.363Z" style="fill:#393551;"/><path d="M46.565,55.362c-8.064,-0.991 -15.415,4.752 -16.406,12.815c-0.99,8.064 4.752,15.416 12.816,16.406c8.064,0.991 15.415,-4.751 16.405,-12.815c0.991,-8.064 -4.751,-15.416 -12.815,-16.406Z" style="fill:#f2cf9d;stroke:#000;stroke-width:3px;"/><path d="M44.77,61.008c1.28,6.064 4.54,8.561 8.68,8.965c-4.93,0.884 -7.87,3.822 -8.68,8.965c-0.4,-5.286 -3.44,-8.085 -8.69,-8.965c4.6,-1.234 7.88,-3.819 8.69,-8.965Z"/><path d="M95.315,55.362c-8.064,-0.991 -15.415,4.752 -16.406,12.815c-0.99,8.064 4.752,15.416 12.816,16.406c8.064,0.991 15.415,-4.751 16.405,-12.815c0.991,-8.064 -4.751,-15.416 -12.815,-16.406Z" style="fill:#f2cf9d;stroke:#000;stroke-width:3px;"/><path d="M93.52,61.008c1.28,6.064 4.54,8.561 8.68,8.965c-4.93,0.884 -7.87,3.822 -8.68,8.965c-0.4,-5.286 -3.44,-8.085 -8.69,-8.965c4.6,-1.234 7.88,-3.819 8.69,-8.965Z"/><path d="M59.84,86.009c1.22,-1.687 15.37,-3.303 16.98,-1.939c1.6,1.363 -4.53,9.799 -7.36,10.122c-2.83,0.323 -10.85,-6.496 -9.62,-8.183Z" style="fill:#d18293;"/><path d="M58.63,85.127c0.29,-0.399 0.97,-0.898 2.05,-1.277c1.66,-0.587 4.48,-1.119 7.34,-1.445c2.85,-0.326 5.72,-0.445 7.48,-0.249c1.13,0.126 1.91,0.451 2.29,0.771l0.32,0.343l0.23,0.385l0.22,0.766c0.09,0.722 -0.15,1.809 -0.74,3.027c-1.08,2.247 -3.32,5.146 -5.29,6.767c-1.06,0.869 -2.1,1.376 -2.9,1.467c-0.8,0.092 -1.93,-0.166 -3.17,-0.77c-2.31,-1.129 -5.18,-3.44 -6.78,-5.376c-0.86,-1.047 -1.36,-2.048 -1.45,-2.766l0.03,-0.797l0.13,-0.433l0.24,-0.413Zm2.78,1.675c0.06,0.099 0.12,0.2 0.18,0.286c0.78,1.133 2.26,2.513 3.79,3.64c1.01,0.74 2.05,1.372 2.94,1.728c0.38,0.153 0.71,0.276 0.97,0.246c0.57,-0.066 1.26,-0.691 2.04,-1.436c1.48,-1.426 2.99,-3.477 3.79,-5.121c0.14,-0.299 0.26,-0.666 0.35,-0.944c-0.29,-0.048 -0.66,-0.101 -0.99,-0.117c-1.62,-0.084 -3.88,0.045 -6.12,0.301c-2.25,0.257 -4.48,0.641 -6.03,1.085c-0.31,0.09 -0.65,0.221 -0.92,0.332Z"/><path d="M68.37,95.024c-0.45,-0.648 -0.32,-1.542 0.31,-2.033c0.65,-0.509 1.59,-0.393 2.1,0.259c0.35,0.437 0.61,1.237 0.69,2.196c0.12,1.521 -0.12,3.534 -0.16,3.831c-0.1,0.821 -0.85,1.407 -1.67,1.306c-0.82,-0.101 -1.41,-0.85 -1.31,-1.672c0.03,-0.218 0.19,-1.514 0.17,-2.699c-0.01,-0.431 -0.12,-1.09 -0.13,-1.188Z"/><path d="M69.799,99.862c-4.141,-0.019 -7.511,1.456 -7.519,3.291c-0.008,1.835 3.347,3.341 7.489,3.359c4.142,0.019 7.511,-1.456 7.519,-3.291c0.009,-1.835 -3.347,-3.34 -7.489,-3.359Z" style="fill:#8f5d84;stroke:#000;stroke-width:3px;"/></g><path d="M39.69,2.568c0.75,5.95 2.66,8.4 5.08,8.8c-2.89,0.86 -4.61,3.75 -5.08,8.792c-0.23,-5.182 -2.01,-7.932 -5.08,-8.792c2.69,-1.22 4.61,-3.75 5.08,-8.8Z" style="fill:#c4a44d;"/><path d="M10.86,99.094c0.75,5.949 2.66,8.4 5.08,8.796c-2.88,0.867 -4.61,3.75 -5.08,8.796c-0.23,-5.186 -2.01,-7.932 -5.08,-8.796c2.69,-1.211 4.61,-3.747 5.08,-8.796Z" style="fill:#c4a44d;"/><path d="M141.14,49.128c0.75,5.95 2.66,8.401 5.08,8.796c-2.89,0.868 -4.61,3.751 -5.08,8.797c-0.23,-5.187 -2.01,-7.933 -5.08,-8.797c2.69,-1.211 4.61,-3.747 5.08,-8.796Z" style="fill:#c4a44d;"/><path d="M106.28,158.079l-0,74.862c-0,10.455 -8.48,18.944 -18.94,18.944l-37.89,-0c-10.45,-0 -18.94,-8.489 -18.94,-18.944l-0,-74.862c-0,-10.456 8.49,-18.944 18.94,-18.944l37.89,-0c10.46,-0 18.94,8.488 18.94,18.944Z" style="fill:#b4b582;stroke:#f2cf9d;stroke-width:3px;"/><path d="M68.4,174.141l3.83,11.812l7.4,-3.65l-1.19,8.162l12.42,-0l-10.04,7.301l5.75,5.906l-8.13,1.394l3.84,11.813l-10.05,-7.301l-3.83,7.301l-3.84,-7.301l-10.05,7.301l3.84,-11.813l-8.13,-1.394l5.76,-5.906l-10.05,-7.301l12.42,-0l-1.19,-8.162l7.4,3.65l3.84,-11.812Z" style="fill:#e6a47e;stroke:#f2cf9d;stroke-width:3px;"/></g></svg>