<?xml version="1.0" encoding="UTF-8" standalone="no"?><!DOCTYPE svg PUBLIC "-//W3C//DTD SVG 1.1//EN" "http://www.w3.org/Graphics/SVG/1.1/DTD/svg11.dtd"><svg width="100%" height="100%" viewBox="0 0 212 252" version="1.1" xmlns="http://www.w3.org/2000/svg" xmlns:xlink="http://www.w3.org/1999/xlink" xml:space="preserve" xmlns:serif="http://www.serif.com/" style="fill-rule:evenodd;clip-rule:evenodd;stroke-linecap:round;stroke-linejoin:round;stroke-miterlimit:10;"><rect id="Artboard9" x="-0" y="-0" width="212" height="252" style="fill:none;"/><g><g><path d="M138.782,28.496c-25.679,-3.154 -48.902,13.621 -51.827,37.437c-2.925,23.816 15.548,45.712 41.227,48.866c25.679,3.154 48.902,-13.621 51.828,-37.437c2.925,-23.816 -15.548,-45.712 -41.228,-48.866Z" style="fill:#4c4961;stroke:#000;stroke-width:3px;"/><path d="M109.13,34.065c0,-0 -12.36,-6.175 -17.72,-8.195c-4.63,-1.738 -10.2,-7.715 -11.7,-5.337c-1.7,2.697 -3.94,15.127 -0.77,21.521c2.92,5.887 8.38,21.521 8.38,21.521" style="fill:#4c4961;"/><path d="M80.87,21.51c-0.76,1.382 -1.55,4.767 -1.88,8.53c-0.35,3.962 -0.19,8.362 1.29,11.347c2.95,5.935 8.45,21.694 8.45,21.694c0.28,0.782 -0.14,1.638 -0.92,1.91c-0.78,0.273 -1.64,-0.14 -1.91,-0.921c0,-0 -5.41,-15.51 -8.31,-21.349c-1.69,-3.409 -1.99,-8.421 -1.59,-12.946c0.4,-4.554 1.53,-8.596 2.44,-10.043c0.82,-1.304 2.26,-1.625 4.18,-0.801c2.43,1.044 6.1,4.327 9.31,5.535c5.42,2.036 17.87,8.258 17.87,8.258c0.74,0.37 1.04,1.272 0.67,2.012c-0.37,0.741 -1.28,1.041 -2.02,0.671c0,-0 -12.25,-6.13 -17.57,-8.133c-2.85,-1.069 -6.05,-3.682 -8.49,-5.092c-0.4,-0.232 -0.77,-0.426 -1.11,-0.559c-0.13,-0.048 -0.29,-0.088 -0.41,-0.113Z"/><path d="M157.88,34.913c-0.54,-0.434 20.92,-12.418 20.92,-12.418c0,-0 9.04,-3.79 10.65,-0.836c1.61,2.954 -1.34,13.791 -3.04,22.037c-1.56,7.593 -7.08,19.879 -7.08,19.879" style="fill:#4c4961;"/><path d="M159.13,35.737c-0.03,0.041 -0.06,0.081 -0.09,0.121c-0.52,0.643 -1.47,0.741 -2.11,0.22l-0.3,-0.324l-0.2,-0.421l-0.06,-0.486l0.09,-0.494l0.37,-0.588c0.12,-0.121 0.32,-0.3 0.62,-0.516c3.11,-2.275 20.62,-12.063 20.62,-12.063c0.05,-0.028 0.1,-0.052 0.15,-0.074c0,-0 4.74,-1.966 8.18,-2.074c2.04,-0.065 3.65,0.587 4.37,1.903c0.58,1.056 0.77,2.947 0.55,5.356c-0.42,4.764 -2.24,11.874 -3.44,17.702c-1.59,7.71 -7.18,20.191 -7.18,20.191c-0.34,0.755 -1.23,1.093 -1.99,0.754c-0.75,-0.34 -1.09,-1.228 -0.75,-1.983c0,-0 5.44,-12.093 6.98,-19.568c1.18,-5.717 2.98,-12.69 3.39,-17.364c0.15,-1.636 0.2,-2.935 -0.19,-3.652c-0.12,-0.212 -0.39,-0.239 -0.67,-0.287c-0.64,-0.112 -1.42,-0.054 -2.23,0.07c-2.53,0.388 -5.29,1.488 -5.78,1.688c-1.26,0.699 -17.3,9.67 -20.24,11.822c-0.03,0.021 -0.06,0.044 -0.09,0.067Zm0.19,-1.24c-0.08,-0.296 -0.25,-0.545 -0.5,-0.749c0.25,0.2 0.41,0.464 0.5,0.749Z"/><path d="M168.56,43.662c7.04,-1.76 13.27,-8.307 18.85,-18.317c-0.22,1.364 -2.04,13.229 -3.5,17.806c-2.24,6.979 -6.31,16.978 -6.31,16.978c-1.7,-6.957 -4.3,-12.958 -8.44,-16.243l-0.6,-0.224Z" style="fill:#393551;"/><path d="M97.97,42.054c-0.3,-0.043 -4.85,-0.963 -10.37,-6.171c-2.89,-2.732 -4.37,-6.196 -6.57,-11.719c-0.96,6.356 -0.43,9.702 0.11,14.558c0.19,1.695 5.6,10.733 7.35,18.695c1.41,-6.004 4.6,-10.612 9.48,-15.363Z" style="fill:#393551;"/><path d="M111.795,47.362c-8.064,-0.991 -15.415,4.752 -16.406,12.815c-0.99,8.064 4.752,15.416 12.816,16.406c8.064,0.991 15.415,-4.751 16.405,-12.815c0.991,-8.064 -4.751,-15.416 -12.815,-16.406Z" style="fill:#f2cf9d;stroke:#000;stroke-width:3px;"/><path d="M110,50.008c1.71,8.093 6.07,11.426 11.59,11.965c-6.58,1.18 -10.51,5.101 -11.59,11.965c-0.52,-7.055 -4.59,-10.79 -11.59,-11.965c6.13,-1.647 10.52,-5.097 11.59,-11.965Z"/><path d="M160.545,47.362c-8.064,-0.991 -15.415,4.752 -16.406,12.815c-0.99,8.064 4.752,15.416 12.816,16.406c8.064,0.991 15.415,-4.751 16.405,-12.815c0.991,-8.064 -4.751,-15.416 -12.815,-16.406Z" style="fill:#f2cf9d;stroke:#000;stroke-width:3px;"/><path d="M158.75,50.008c1.71,8.093 6.07,11.426 11.59,11.965c-6.58,1.18 -10.51,5.101 -11.59,11.965c-0.52,-7.055 -4.59,-10.79 -11.59,-11.965c6.13,-1.647 10.52,-5.097 11.59,-11.965Z"/><path d="M125.07,78.009c1.23,-1.687 15.38,-3.303 16.98,-1.939c1.6,1.363 -4.53,9.799 -7.36,10.122c-2.83,0.323 -10.85,-6.496 -9.62,-8.183Z" style="fill:#d18293;"/><path d="M123.86,77.127c0.29,-0.399 0.98,-0.898 2.05,-1.277c1.66,-0.587 4.49,-1.119 7.34,-1.445c2.85,-0.326 5.73,-0.445 7.48,-0.249c1.13,0.126 1.92,0.451 2.29,0.771l0.32,0.343l0.24,0.385l0.21,0.766c0.09,0.722 -0.15,1.809 -0.74,3.027c-1.08,2.247 -3.31,5.146 -5.29,6.767c-1.06,0.869 -2.1,1.376 -2.9,1.467c-0.8,0.092 -1.93,-0.166 -3.16,-0.77c-2.32,-1.129 -5.19,-3.44 -6.78,-5.376c-0.87,-1.047 -1.36,-2.048 -1.45,-2.766l0.02,-0.797l0.13,-0.433l0.24,-0.413Zm2.79,1.675c0.05,0.099 0.11,0.2 0.17,0.286c0.78,1.133 2.26,2.513 3.8,3.64c1.01,0.74 2.04,1.372 2.93,1.728c0.38,0.153 0.71,0.276 0.97,0.246c0.57,-0.066 1.27,-0.691 2.04,-1.436c1.48,-1.426 3,-3.477 3.79,-5.121c0.15,-0.299 0.27,-0.666 0.35,-0.944c-0.29,-0.048 -0.66,-0.1 -0.99,-0.117c-1.62,-0.083 -3.88,0.045 -6.12,0.302c-2.24,0.256 -4.47,0.64 -6.02,1.084c-0.31,0.09 -0.66,0.221 -0.92,0.332Z"/><path d="M133.6,87.024c-0.45,-0.648 -0.32,-1.541 0.31,-2.032c0.65,-0.51 1.6,-0.394 2.11,0.258c0.34,0.437 0.6,1.237 0.68,2.196c0.12,1.521 -0.12,3.534 -0.16,3.831c-0.1,0.821 -0.85,1.407 -1.67,1.306c-0.82,-0.101 -1.4,-0.85 -1.3,-1.672c0.02,-0.218 0.18,-1.514 0.16,-2.699c0,-0.431 -0.11,-1.09 -0.13,-1.188Z"/><path d="M135.035,91.868c-4.982,-0.022 -9.035,1.951 -9.046,4.403c-0.011,2.453 4.024,4.463 9.006,4.485c4.982,0.022 9.035,-1.951 9.046,-4.403c0.011,-2.453 -4.024,-4.462 -9.006,-4.485Z" style="fill:#8f5d84;stroke:#000;stroke-width:3px;"/></g><path d="M57.13,53.177c0.75,5.949 2.66,8.4 5.08,8.796c-2.89,0.867 -4.61,3.75 -5.08,8.796c-0.23,-5.187 -2.01,-7.933 -5.08,-8.796c2.69,-1.211 4.61,-3.747 5.08,-8.796Z" style="fill:#c4a44d;"/><path d="M152.24,3.072c0.75,5.954 2.66,8.405 5.08,8.8c-2.89,0.868 -4.61,3.751 -5.08,8.797c-0.23,-5.187 -2.01,-7.933 -5.08,-8.797c2.69,-1.211 4.61,-3.747 5.08,-8.8Z" style="fill:#c4a44d;"/><path d="M203.38,75.559c0.75,5.95 2.66,8.4 5.08,8.796c-2.89,0.868 -4.61,3.751 -5.08,8.796c-0.23,-5.186 -2.01,-7.932 -5.08,-8.796c2.69,-1.211 4.61,-3.747 5.08,-8.796Z" style="fill:#c4a44d;"/><path d="M171.52,150.079l0,74.862c0,10.455 -8.49,18.944 -18.95,18.944l-37.89,-0c-10.45,-0 -18.94,-8.489 -18.94,-18.944l0,-74.862c0,-10.455 8.49,-18.944 18.94,-18.944l37.89,-0c10.46,-0 18.95,8.489 18.95,18.944Z" style="fill:#b4b582;stroke:#f2cf9d;stroke-width:3px;"/><path d="M133.63,166.141l3.84,11.812l7.39,-3.65l-1.18,8.162l12.42,-0l-10.05,7.301l5.76,5.906l-8.13,1.395l3.84,11.812l-10.05,-7.301l-3.84,7.301l-3.84,-7.301l-10.05,7.301l3.84,-11.812l-8.13,-1.395l5.76,-5.906l-10.05,-7.301l12.42,-0l-1.19,-8.162l7.4,3.65l3.84,-11.812Z" style="fill:#e6a47e;stroke:#f2cf9d;stroke-width:3px;"/><path d="M80.77,117.456l0,74.862c0,10.455 -8.49,18.944 -18.95,18.944l-37.89,-0c-10.45,-0 -18.94,-8.489 -18.94,-18.944l0,-74.862c0,-10.456 8.49,-18.944 18.94,-18.944l37.89,-0c10.46,-0 18.95,8.488 18.95,18.944Z" style="fill:#b4b582;stroke:#f2cf9d;stroke-width:3px;"/><path d="M42.88,133.518l3.84,11.812l7.39,-3.65l-1.18,8.162l12.42,-0l-10.05,7.301l5.76,5.906l-8.13,1.394l3.84,11.813l-10.05,-7.301l-3.84,7.301l-3.84,-7.301l-10.05,7.301l3.84,-11.813l-8.13,-1.394l5.76,-5.906l-10.05,-7.301l12.42,-0l-1.19,-8.162l7.4,3.65l3.84,-11.812Z" style="fill:#e6a47e;stroke:#f2cf9d;stroke-width:3px;"/></g></svg>