<?xml version="1.0" encoding="UTF-8" standalone="no"?><!DOCTYPE svg PUBLIC "-//W3C//DTD SVG 1.1//EN" "http://www.w3.org/Graphics/SVG/1.1/DTD/svg11.dtd"><svg width="100%" height="100%" viewBox="0 0 269 252" version="1.1" xmlns="http://www.w3.org/2000/svg" xmlns:xlink="http://www.w3.org/1999/xlink" xml:space="preserve" xmlns:serif="http://www.serif.com/" style="fill-rule:evenodd;clip-rule:evenodd;stroke-linecap:round;stroke-linejoin:round;stroke-miterlimit:10;"><rect id="Artboard10" x="-0" y="-0" width="269" height="252" style="fill:none;"/><g><path d="M206.26,15.087c0.48,3.797 1.7,5.361 3.25,5.613c-1.85,0.554 -2.94,2.394 -3.25,5.614c-0.14,-3.31 -1.28,-5.062 -3.24,-5.614c1.72,-0.772 2.94,-2.391 3.24,-5.613Z" style="fill:#c4a44d;"/><g><path d="M140.772,31.496c-25.679,-3.154 -48.902,13.62 -51.827,37.436c-2.925,23.816 15.548,45.712 41.227,48.866c25.679,3.154 48.903,-13.621 51.828,-37.436c2.925,-23.816 -15.548,-45.712 -41.228,-48.866Z" style="fill:#4c4961;stroke:#000;stroke-width:3px;"/><path d="M111.12,37.065c-0,-0 -12.36,-6.175 -17.72,-8.195c-4.63,-1.738 -10.2,-7.715 -11.7,-5.337c-1.7,2.697 -3.94,15.127 -0.77,21.521c2.92,5.887 8.38,21.521 8.38,21.521" style="fill:#4c4961;"/><path d="M82.86,24.51c-0.76,1.382 -1.55,4.767 -1.88,8.53c-0.35,3.962 -0.19,8.362 1.29,11.347c2.95,5.935 8.45,21.694 8.45,21.694c0.28,0.782 -0.14,1.638 -0.92,1.91c-0.78,0.273 -1.64,-0.14 -1.91,-0.921c-0,-0 -5.41,-15.51 -8.31,-21.349c-1.69,-3.409 -1.99,-8.421 -1.59,-12.946c0.41,-4.554 1.53,-8.596 2.44,-10.043c0.82,-1.304 2.26,-1.625 4.18,-0.801c2.43,1.044 6.1,4.327 9.31,5.535c5.42,2.036 17.87,8.258 17.87,8.258c0.74,0.37 1.04,1.272 0.67,2.012c-0.37,0.741 -1.28,1.041 -2.02,0.671c-0,-0 -12.25,-6.13 -17.57,-8.133c-2.85,-1.069 -6.05,-3.682 -8.49,-5.092c-0.4,-0.232 -0.77,-0.426 -1.11,-0.559c-0.13,-0.048 -0.29,-0.088 -0.41,-0.113Z"/><path d="M159.87,37.913c-0.54,-0.434 20.92,-12.418 20.92,-12.418c-0,-0 9.04,-3.79 10.65,-0.836c1.61,2.954 -1.34,13.791 -3.04,22.037c-1.56,7.593 -7.08,19.879 -7.08,19.879" style="fill:#4c4961;"/><path d="M161.12,38.737c-0.03,0.041 -0.06,0.081 -0.09,0.121c-0.52,0.643 -1.47,0.741 -2.11,0.22l-0.3,-0.324l-0.2,-0.421l-0.06,-0.486l0.09,-0.494l0.37,-0.588c0.12,-0.121 0.32,-0.3 0.62,-0.516c3.11,-2.275 20.62,-12.063 20.62,-12.063c0.05,-0.028 0.1,-0.052 0.15,-0.074c-0,-0 4.74,-1.966 8.18,-2.074c2.04,-0.065 3.65,0.587 4.37,1.903c0.58,1.056 0.77,2.947 0.55,5.356c-0.42,4.764 -2.24,11.874 -3.44,17.702c-1.59,7.71 -7.18,20.191 -7.18,20.191c-0.34,0.755 -1.23,1.093 -1.99,0.754c-0.75,-0.34 -1.09,-1.228 -0.75,-1.983c-0,-0 5.44,-12.093 6.98,-19.568c1.18,-5.717 2.98,-12.69 3.39,-17.364c0.15,-1.636 0.2,-2.935 -0.19,-3.652c-0.12,-0.212 -0.39,-0.239 -0.67,-0.287c-0.64,-0.112 -1.42,-0.054 -2.23,0.07c-2.53,0.388 -5.29,1.488 -5.78,1.688c-1.26,0.699 -17.3,9.67 -20.24,11.822c-0.03,0.021 -0.06,0.044 -0.09,0.067Zm0.19,-1.24c-0.08,-0.296 -0.25,-0.545 -0.5,-0.749c0.25,0.2 0.41,0.464 0.5,0.749Z"/><path d="M170.55,46.662c7.04,-1.76 13.27,-8.307 18.85,-18.317c-0.22,1.364 -2.04,13.229 -3.5,17.806c-2.24,6.979 -6.31,16.978 -6.31,16.978c-1.7,-6.957 -4.3,-12.958 -8.44,-16.243l-0.6,-0.224Z" style="fill:#393551;"/><path d="M99.96,45.054c-0.3,-0.043 -4.85,-0.963 -10.37,-6.171c-2.89,-2.732 -4.37,-6.196 -6.57,-11.719c-0.96,6.356 -0.43,9.702 0.11,14.558c0.19,1.695 5.6,10.733 7.35,18.695c1.41,-6.004 4.6,-10.612 9.48,-15.363Z" style="fill:#393551;"/><path d="M112.915,50.363c-8.064,-0.991 -15.415,4.751 -16.406,12.815c-0.99,8.064 4.752,15.415 12.816,16.405c8.064,0.991 15.415,-4.751 16.405,-12.815c0.991,-8.063 -4.751,-15.414 -12.815,-16.405Z" style="fill:#f2cf9d;"/><clipPath id="_clip1"><path d="M112.91,50.363c8.06,0.99 13.81,8.34 12.82,16.404c-0.99,8.063 -8.35,13.806 -16.41,12.816c-8.06,-0.99 -13.8,-8.341 -12.81,-16.404c0.99,-8.064 8.34,-13.806 16.4,-12.816Z"/></clipPath><g clip-path="url(#_clip1)"><path d="M111.12,46.546c2.63,12.464 9.33,17.598 17.84,18.427c-10.13,1.817 -16.18,7.856 -17.84,18.426c-0.81,-10.865 -7.07,-16.617 -17.85,-18.426c9.44,-2.537 16.19,-7.85 17.85,-18.427Z"/></g><path d="M112.915,50.363c-8.064,-0.991 -15.415,4.751 -16.406,12.815c-0.99,8.064 4.752,15.415 12.816,16.405c8.064,0.991 15.415,-4.751 16.405,-12.815c0.991,-8.063 -4.751,-15.414 -12.815,-16.405Z" style="fill:none;stroke:#000;stroke-width:3px;"/><path d="M161.665,50.363c-8.064,-0.991 -15.415,4.751 -16.406,12.815c-0.99,8.064 4.752,15.415 12.816,16.405c8.064,0.991 15.415,-4.751 16.405,-12.815c0.991,-8.063 -4.751,-15.414 -12.815,-16.405Z" style="fill:#f2cf9d;"/><clipPath id="_clip2"><path d="M161.66,50.363c8.06,0.99 13.81,8.34 12.82,16.404c-0.99,8.063 -8.35,13.806 -16.41,12.816c-8.06,-0.99 -13.8,-8.341 -12.81,-16.404c0.99,-8.064 8.34,-13.806 16.4,-12.816Z"/></clipPath><g clip-path="url(#_clip2)"><path d="M159.87,46.546c2.63,12.464 9.33,17.598 17.84,18.427c-10.13,1.817 -16.18,7.856 -17.84,18.426c-0.81,-10.865 -7.07,-16.617 -17.85,-18.426c9.44,-2.537 16.19,-7.85 17.85,-18.427Z"/></g><path d="M161.665,50.363c-8.064,-0.991 -15.415,4.751 -16.406,12.815c-0.99,8.064 4.752,15.415 12.816,16.405c8.064,0.991 15.415,-4.751 16.405,-12.815c0.991,-8.063 -4.751,-15.414 -12.815,-16.405Z" style="fill:none;stroke:#000;stroke-width:3px;"/><path d="M126.19,81.009c1.22,-1.687 15.37,-3.303 16.97,-1.939c1.61,1.363 -4.53,9.799 -7.36,10.122c-2.83,0.323 -10.84,-6.496 -9.61,-8.183Z" style="fill:#d18293;"/><path d="M124.97,80.127c0.29,-0.399 0.98,-0.898 2.05,-1.277c1.66,-0.587 4.49,-1.119 7.34,-1.445c2.85,-0.326 5.73,-0.445 7.49,-0.249c1.12,0.126 1.91,0.451 2.29,0.771l0.32,0.343l0.23,0.385l0.22,0.766c0.08,0.722 -0.16,1.809 -0.74,3.027c-1.09,2.247 -3.32,5.146 -5.3,6.767c-1.06,0.869 -2.09,1.376 -2.9,1.467c-0.8,0.092 -1.92,-0.166 -3.16,-0.77c-2.31,-1.129 -5.18,-3.44 -6.78,-5.376c-0.86,-1.047 -1.36,-2.048 -1.45,-2.766l0.02,-0.797l0.14,-0.433l0.23,-0.413Zm2.79,1.675c0.05,0.099 0.11,0.2 0.17,0.286c0.79,1.133 2.26,2.513 3.8,3.64c1.01,0.74 2.04,1.372 2.93,1.728c0.38,0.153 0.71,0.276 0.97,0.246c0.58,-0.066 1.27,-0.691 2.04,-1.436c1.48,-1.426 3,-3.477 3.79,-5.121c0.15,-0.299 0.27,-0.666 0.35,-0.944c-0.29,-0.048 -0.66,-0.1 -0.99,-0.117c-1.61,-0.083 -3.87,0.045 -6.12,0.302c-2.24,0.256 -4.47,0.64 -6.02,1.084c-0.31,0.09 -0.65,0.221 -0.92,0.332Z"/><path d="M134.71,90.024c-0.44,-0.648 -0.31,-1.541 0.31,-2.032c0.66,-0.51 1.6,-0.394 2.11,0.258c0.34,0.437 0.61,1.237 0.68,2.196c0.12,1.521 -0.12,3.534 -0.15,3.831c-0.1,0.821 -0.85,1.407 -1.67,1.306c-0.83,-0.101 -1.41,-0.85 -1.31,-1.672c0.03,-0.218 0.19,-1.514 0.17,-2.699c-0.01,-0.431 -0.12,-1.09 -0.14,-1.188Z"/><path d="M136.145,94.87c-6.226,-0.026 -11.291,2.616 -11.305,5.895c-0.014,3.28 5.029,5.964 11.255,5.99c6.226,0.026 11.291,-2.615 11.305,-5.895c0.014,-3.28 -5.029,-5.963 -11.255,-5.99Z" style="fill:#8f5d84;stroke:#000;stroke-width:3px;"/></g><path d="M220.41,39.783c0.75,5.95 2.66,8.4 5.08,8.796c-2.88,0.868 -4.6,3.751 -5.08,8.796c-0.23,-5.186 -2.01,-7.932 -5.07,-8.796c2.68,-1.211 4.6,-3.747 5.07,-8.796Z" style="fill:#c4a44d;"/><path d="M50.82,32.661c0.75,5.949 2.66,8.4 5.08,8.796c-2.88,0.867 -4.6,3.75 -5.08,8.796c-0.23,-5.187 -2.01,-7.933 -5.07,-8.796c2.68,-1.211 4.6,-3.747 5.07,-8.796Z" style="fill:#c4a44d;"/><path d="M71.54,3.112c0.48,3.79 1.7,5.36 3.24,5.61c-1.84,0.55 -2.94,2.393 -3.24,5.613c-0.15,-3.31 -1.28,-5.063 -3.24,-5.613c1.71,-0.77 2.94,-2.39 3.24,-5.61Z" style="fill:#c4a44d;"/><path d="M134.74,3.112c0.75,5.95 2.66,8.396 5.08,8.792c-2.88,0.868 -4.6,3.751 -5.08,8.796c-0.23,-5.186 -2.01,-7.932 -5.08,-8.796c2.69,-1.211 4.61,-3.742 5.08,-8.792Z" style="fill:#c4a44d;"/><path d="M172.63,153.079l-0,74.862c-0,10.455 -8.49,18.944 -18.94,18.944l-37.89,-0c-10.46,-0 -18.95,-8.489 -18.95,-18.944l-0,-74.862c-0,-10.455 8.49,-18.944 18.95,-18.944l37.89,-0c10.45,-0 18.94,8.489 18.94,18.944Z" style="fill:#b4b582;stroke:#f2cf9d;stroke-width:3px;"/><path d="M134.74,169.141l3.84,11.812l7.4,-3.65l-1.19,8.162l12.42,-0l-10.05,7.301l5.76,5.906l-8.13,1.395l3.84,11.812l-10.05,-7.301l-3.84,7.301l-3.84,-7.301l-10.04,7.301l3.83,-11.812l-8.12,-1.395l5.75,-5.906l-10.05,-7.301l12.42,-0l-1.18,-8.162l7.39,3.65l3.84,-11.812Z" style="fill:#e6a47e;stroke:#f2cf9d;stroke-width:3px;"/><path d="M81.88,120.456l-0,74.862c-0,10.455 -8.49,18.944 -18.94,18.944l-37.89,-0c-10.46,-0 -18.95,-8.489 -18.95,-18.944l-0,-74.862c-0,-10.456 8.49,-18.944 18.95,-18.944l37.89,-0c10.45,-0 18.94,8.488 18.94,18.944Z" style="fill:#b4b582;stroke:#f2cf9d;stroke-width:3px;"/><path d="M43.99,136.518l3.84,11.812l7.4,-3.65l-1.19,8.162l12.42,-0l-10.05,7.301l5.76,5.906l-8.13,1.394l3.84,11.813l-10.05,-7.301l-3.84,7.301l-3.84,-7.301l-10.04,7.301l3.83,-11.813l-8.12,-1.394l5.75,-5.906l-10.05,-7.301l12.42,-0l-1.18,-8.162l7.39,3.65l3.84,-11.812Z" style="fill:#e6a47e;stroke:#f2cf9d;stroke-width:3px;"/><path d="M263.38,123.137l-0,74.862c-0,10.456 -8.49,18.944 -18.94,18.944l-37.89,-0c-10.46,-0 -18.95,-8.488 -18.95,-18.944l-0,-74.862c-0,-10.455 8.49,-18.944 18.95,-18.944l37.89,-0c10.45,-0 18.94,8.489 18.94,18.944Z" style="fill:#b4b582;stroke:#f2cf9d;stroke-width:3px;"/><path d="M225.49,139.199l3.84,11.813l7.4,-3.651l-1.19,8.163l12.42,-0l-10.05,7.3l5.76,5.907l-8.13,1.394l3.84,11.812l-10.05,-7.3l-3.84,7.3l-3.84,-7.3l-10.04,7.3l3.83,-11.812l-8.12,-1.394l5.75,-5.907l-10.05,-7.3l12.42,-0l-1.18,-8.163l7.39,3.651l3.84,-11.813Z" style="fill:#e6a47e;stroke:#f2cf9d;stroke-width:3px;"/></g></svg>