<?xml version="1.0" encoding="UTF-8" standalone="no"?><!DOCTYPE svg PUBLIC "-//W3C//DTD SVG 1.1//EN" "http://www.w3.org/Graphics/SVG/1.1/DTD/svg11.dtd"><svg width="100%" height="100%" viewBox="0 0 149 180" version="1.1" xmlns="http://www.w3.org/2000/svg" xmlns:xlink="http://www.w3.org/1999/xlink" xml:space="preserve" xmlns:serif="http://www.serif.com/" style="fill-rule:evenodd;clip-rule:evenodd;stroke-linecap:round;stroke-linejoin:round;stroke-miterlimit:10;"><rect id="Artboard7" x="0.78" y="0" width="148" height="180" style="fill:none;"/><g><path d="M31.437,97.869l15.65,-93.187l83.58,94.172l-99.23,-0.985Z" style="fill:#8f5d84;"/><path d="M29.347,97.518l15.66,-93.187c0.13,-0.803 0.72,-1.457 1.5,-1.682c0.78,-0.224 1.62,0.02 2.16,0.629l83.58,94.172c0.56,0.626 0.69,1.519 0.35,2.28c-0.35,0.761 -1.11,1.246 -1.95,1.238l-99.23,-0.985c-0.62,-0.006 -1.21,-0.283 -1.6,-0.757c-0.4,-0.474 -0.57,-1.098 -0.47,-1.708Zm4.58,-1.739l92,0.913l-77.48,-87.301l-14.52,86.388Z"/><path d="M52.547,39.846l0.47,8.656l8.45,2.232l-8.16,3.117l0.47,8.655l-5.52,-6.729l-8.17,3.117l4.76,-7.276l-5.52,-6.729l8.46,2.233l4.76,-7.276Z" style="fill:#f2cf9d;stroke:#000;stroke-width:2px;"/><path d="M79.757,44.144l7.37,7.624l-4.2,2.244l0.65,11.828l-7.55,-9.192l-11.16,4.265l6.5,-9.946l-7.55,-9.193l11.56,3.045l4.38,-0.675Z" style="fill:#f2cf9d;stroke:#000;stroke-width:2px;"/><path d="M53.497,20.241l4.46,2.953l2.1,-1.191l0.66,3.016l4.47,2.953l-5.37,0.21l-1.45,5.117l-1.86,-4.988l-5.37,0.21l4.22,-3.293l-1.86,-4.987Z" style="fill:#f2cf9d;stroke:#000;stroke-width:1.5px;"/><path d="M70.067,66.804l-0.05,4.607l4.42,1.464l-4.44,1.384l-0.04,4.607l-2.7,-3.752l-4.44,1.384l2.77,-3.703l-2.7,-3.752l4.41,1.464l2.77,-3.703Z" style="fill:#f2cf9d;stroke:#000;stroke-width:1.05px;"/><path d="M44.977,77.649l4.62,5.123l6.35,-2.765l-3.5,5.931l4.62,5.123l-6.77,-1.458l-3.5,5.932l-0.69,-6.832l-6.78,-1.457l6.35,-2.765l-0.7,-6.832Z" style="fill:#f2cf9d;stroke:#000;stroke-width:2.12px;"/><ellipse cx="78.162" cy="119.629" rx="60.695" ry="53.803" style="fill:#4c4961;stroke:#000;stroke-width:4.23px;"/><path d="M47.767,73.054c-2.36,-0.702 -12.52,-2.088 -12.52,-2.088c-0,0 -16.15,-6.976 -23.88,-14.58c-0,0 -9.01,28.534 -3.03,38.475c5.96,9.912 9.39,19.731 9.39,19.731" style="fill:#4c4961;"/><path d="M48.367,71.031c1.12,0.331 1.76,1.507 1.43,2.624c-0.33,1.117 -1.51,1.754 -2.63,1.423c-2.3,-0.684 -12.2,-2.02 -12.2,-2.02c-0.19,-0.026 -0.38,-0.078 -0.55,-0.154c-0,0 -13.48,-5.851 -21.95,-12.73c-1.31,4.72 -3.59,13.942 -4,22.1c-0.24,4.574 0.05,8.802 1.68,11.5c6.08,10.107 9.58,20.122 9.58,20.122c0.38,1.099 -0.2,2.304 -1.3,2.689c-1.1,0.384 -2.31,-0.197 -2.69,-1.296c-0,0 -3.37,-9.624 -9.21,-19.34c-1.97,-3.267 -2.56,-8.35 -2.28,-13.89c0.61,-12.04 5.11,-26.309 5.11,-26.309c0.22,-0.701 0.79,-1.235 1.51,-1.413c0.71,-0.177 1.46,0.029 1.99,0.544c6.94,6.834 20.9,13.121 22.97,14.035c1.71,0.238 10.36,1.467 12.54,2.115Z"/><path d="M100.077,70.074c5.59,-8.895 13.09,-8.034 18.13,-11.548c4.08,-2.841 8.33,-13.313 8.33,-13.313c-0,0 17.1,16.597 14.48,26.692c-4.5,17.298 -9.89,19.573 -4.25,33.725" style="fill:#4c4961;"/><path d="M101.857,71.193c-0.62,0.984 -1.92,1.281 -2.9,0.663c-0.99,-0.618 -1.28,-1.918 -0.66,-2.902c3.68,-5.857 8.09,-7.888 12.25,-9.387c2.34,-0.844 4.59,-1.464 6.46,-2.767c1.43,-1 2.84,-3.115 4.08,-5.244c2.03,-3.5 3.51,-7.136 3.51,-7.136c0.26,-0.648 0.83,-1.123 1.51,-1.267c0.69,-0.144 1.4,0.062 1.9,0.55c-0,0 8.65,8.421 12.92,17.052c2.02,4.078 3.02,8.224 2.12,11.679c-1.81,6.99 -3.77,11.553 -5.1,15.425c-1.83,5.294 -2.34,9.174 0.78,16.992c0.43,1.079 -0.1,2.304 -1.18,2.733c-1.08,0.43 -2.3,-0.097 -2.73,-1.176c-3.66,-9.164 -2.99,-13.715 -0.85,-19.921c1.31,-3.794 3.23,-8.262 5.01,-15.111c0.93,-3.573 -1.14,-8.006 -3.71,-12.111c-2.64,-4.214 -5.95,-8.055 -8.07,-10.346c-0.9,1.896 -2.18,4.417 -3.63,6.63c-1.3,1.991 -2.75,3.727 -4.15,4.704c-2.17,1.507 -4.74,2.298 -7.45,3.274c-3.41,1.232 -7.08,2.85 -10.11,7.666Z"/><path d="M97.407,73.54l5.247,1.203l0.593,-2.586l-5.248,-1.202l-0.592,2.585Z" style="fill:#4c4961;"/><path d="M43.277,77.149l7.479,0.569l0.201,-2.646l-7.48,-0.568l-0.2,2.645Z" style="fill:#4c4961;"/><path d="M22.427,115.33l-2.36,0.692l-1.34,-5.984l2.36,-0.691l1.34,5.983Z" style="fill:#4c4961;"/><path d="M101.197,71.968l0.715,0.614l0.865,-1.008l-0.716,-0.613l-0.864,1.007Z" style="fill:#4c4961;"/><ellipse cx="51.027" cy="113.761" rx="15.05" ry="14.906" style="fill:#e6a47e;stroke:#000;stroke-width:3px;"/><ellipse cx="110.817" cy="106.774" rx="15.72" ry="15.57" style="fill:#dee6c1;stroke:#000;stroke-width:3px;"/><ellipse cx="50.797" cy="113.987" rx="8.44" ry="8.356"/><ellipse cx="111.327" cy="106.272" rx="9.13" ry="9.041"/><path d="M72.623,125.82c1.77,-2.091 21.297,-4.373 23.432,-2.738c2.136,1.635 -6.714,12.093 -10.619,12.549c-3.906,0.456 -14.583,-7.72 -12.813,-9.811Z" style="fill:#d18293;"/><path d="M71.096,124.528c0.403,-0.476 1.347,-1.081 2.783,-1.55c2.296,-0.748 6.181,-1.454 10.091,-1.911c3.911,-0.457 7.847,-0.664 10.237,-0.463c1.514,0.128 2.571,0.513 3.064,0.89l0.59,0.618l0.361,0.724l0.156,0.835c0.017,0.325 -0.009,0.689 -0.091,1.086c-0.324,1.558 -1.784,4.011 -3.749,6.334c-1.573,1.858 -3.444,3.654 -5.14,4.85c-1.381,0.976 -2.701,1.556 -3.73,1.676c-1.078,0.126 -2.566,-0.169 -4.196,-0.865c-3.135,-1.339 -6.98,-4.121 -9.088,-6.468c-1.198,-1.333 -1.845,-2.632 -1.94,-3.558l0.08,-1.098l0.222,-0.577l0.35,-0.523Zm3.729,2.384c0.16,0.235 0.349,0.493 0.534,0.699c1.534,1.707 4.157,3.677 6.549,4.922c1.298,0.676 2.477,1.207 3.296,1.111c0.827,-0.096 1.886,-0.893 3.035,-1.863c2.106,-1.778 4.297,-4.322 5.47,-6.353c0.139,-0.24 0.271,-0.528 0.381,-0.791c-0.367,-0.045 -0.794,-0.088 -1.182,-0.1c-2.229,-0.067 -5.359,0.139 -8.474,0.503c-3.115,0.364 -6.216,0.886 -8.381,1.467c-0.411,0.11 -0.858,0.266 -1.228,0.405Z"/><path d="M83.414,142.332l0.23,-5.11c0.049,-1.103 0.985,-1.958 2.088,-1.908c1.102,0.049 1.957,0.985 1.908,2.088l-0.197,4.383l5.563,-0c1.104,-0 2,0.896 2,2c0,1.104 -0.896,2 -2,2l-7.323,-0l-7.578,2.584c-1.045,0.357 -2.182,-0.202 -2.538,-1.247c-0.357,-1.046 0.202,-2.182 1.247,-2.539l6.6,-2.251Z"/><path d="M98.267,85.604c-3.54,-3.785 -11.92,-6.202 -20.93,-5.13c-9.01,1.073 -16.36,5.362 -18.62,9.837c3.97,3.132 12.1,5.092 20.76,4.06c8.67,-1.031 15.91,-4.819 18.79,-8.767Z" style="fill:#707a8a;stroke:#000;stroke-width:3px;stroke-linejoin:miter;stroke-miterlimit:1.5;"/><path d="M78.467,80.218c-0,0 2.21,3.17 2.54,7.162c0.33,3.992 -1.35,7.304 -1.35,7.304c-0,0 -2.21,-3.17 -2.54,-7.162c-0.33,-3.992 1.35,-7.304 1.35,-7.304Z"/><path d="M115.747,74.504c8.356,4.741 12.252,10.077 14.92,15.576c4.48,-15.235 7.759,-26.604 0.219,-31.775c-1.51,7.64 -10.739,13.852 -15.139,16.199Z" style="fill:#2e2b46;"/><path d="M35.227,84.114c-13.14,-4.383 -15.91,-10.187 -15.91,-10.187c-0,0 -5.58,-9.582 -5.53,-9.987c-1.53,3.434 -2.54,11.613 -2.54,22.636c-0,4.445 8.69,21.711 9.21,21.196c1.9,-6.795 5.65,-18.831 14.77,-23.658Z" style="fill:#2e2b46;"/></g></svg>